<svg viewBox="0 0 72 72" xmlns="http://www.w3.org/2000/svg"><g fill="none" stroke="#000" stroke-linecap="round" stroke-linejoin="round" stroke-width="2"><path d="M9.915 22.002h16.698M34.861 22.002h27.171M34.934 29.556h19.174M34.934 33.554h19.174M34.934 37.552h19.174"/></g><rect x="5" y="17" rx="3.508" width="62" height="38" fill="#d0cfce"/><path fill="#fff" stroke="#fff" stroke-linecap="round" stroke-linejoin="round" stroke-width="2" d="M10 29.544h16.528v19.462H10z"/><path fill="#fcea2b" d="M26.613 51l-1.153-4.563a4.3 4.3 0 00-4.209-4.131h-6a4.3 4.3 0 00-4.208 4.131L9.915 51z"/><circle cx="18.331" cy="34.8" r="3" fill="#fcea2b"/><g fill="none" stroke="#000" stroke-width="2"><path stroke-linecap="round" stroke-linejoin="round" d="M34.474 50.006l4.706-7.132 1.255 6.215 3.17-4.146.77 3.435c4.792-2.643 9.533 1.474 13.268.115"/><rect x="5" y="17" rx="3.508" width="62" height="38" stroke-linecap="round" stroke-linejoin="round"/><circle cx="18.331" cy="34.8" r="3" stroke-miterlimit="10"/><path stroke-linecap="round" stroke-linejoin="round" d="M26.613 50.006l-.178-3.268a5.274 5.274 0 00-5.207-5H15.3a5.274 5.274 0 00-5.208 5l-.178 3.268"/></g><g fill="none" stroke="#9b9b9a" stroke-linecap="round" stroke-linejoin="round" stroke-width="2"><path d="M9.915 22.002h16.698M34.861 22.002h27.171M34.934 29.556h19.174M34.934 33.554h19.174M34.934 37.552h19.174"/></g></svg>