<?xml version="1.0" encoding="UTF-8"?><svg id="uuid-113442ac-b29d-4da0-8da2-7e4cf0d21753" xmlns="http://www.w3.org/2000/svg" width="62" height="62" xmlns:xlink="http://www.w3.org/1999/xlink" viewBox="0 0 62 62"><defs><style>.uuid-6d9a2503-8945-42e4-a252-db605b6351d0,.uuid-c68c7824-1d7f-4c95-a12d-ad9fc0abc2af{opacity:.05;}.uuid-6d9a2503-8945-42e4-a252-db605b6351d0,.uuid-c68c7824-1d7f-4c95-a12d-ad9fc0abc2af,.uuid-d57caa41-09b7-4be1-a0cd-460379601f68,.uuid-53a91dc9-cc01-4381-8313-9db070c0f9ea,.uuid-1c677c40-8dc5-41d1-bb8c-8474cb2c1c67,.uuid-23a0e34a-a64d-468c-8b6d-6338caa1f396,.uuid-b1e14b6a-7bfb-4433-aafd-95ae4834a3df{stroke-width:0px;}.uuid-c68c7824-1d7f-4c95-a12d-ad9fc0abc2af,.uuid-1c677c40-8dc5-41d1-bb8c-8474cb2c1c67{fill:#231f20;}.uuid-d57caa41-09b7-4be1-a0cd-460379601f68{fill:url(#uuid-6cdef754-9b42-4682-b4dc-1b3ba0af3bab);}.uuid-53a91dc9-cc01-4381-8313-9db070c0f9ea{fill:url(#uuid-c02abe7f-d3a5-495b-8b22-624f4b29eb9f);}.uuid-1c677c40-8dc5-41d1-bb8c-8474cb2c1c67,.uuid-b1e14b6a-7bfb-4433-aafd-95ae4834a3df{opacity:.07;}.uuid-23a0e34a-a64d-468c-8b6d-6338caa1f396{fill:url(#uuid-55e44ea7-7fba-44dd-b0e8-042f3f372a1b);opacity:.25;}</style><linearGradient id="uuid-c02abe7f-d3a5-495b-8b22-624f4b29eb9f" x1="12.1693" y1=".3616" x2="49.8309" y2="61.638" gradientUnits="userSpaceOnUse"><stop offset="0" stop-color="#464646"/><stop offset="1" stop-color="#212121"/></linearGradient><linearGradient id="uuid-55e44ea7-7fba-44dd-b0e8-042f3f372a1b" x1="31" y1="60.8052" x2="31" y2="1.1945" gradientUnits="userSpaceOnUse"><stop offset=".5" stop-color="#212121"/><stop offset="1" stop-color="#fff" stop-opacity=".5"/></linearGradient><linearGradient id="uuid-6cdef754-9b42-4682-b4dc-1b3ba0af3bab" x1="14.5788" y1="9.8164" x2="42.4837" y2="55.2183" gradientUnits="userSpaceOnUse"><stop offset="0" stop-color="#fff"/><stop offset=".242" stop-color="#f2f2f2"/><stop offset="1" stop-color="#ccc"/></linearGradient></defs><path class="uuid-6d9a2503-8945-42e4-a252-db605b6351d0" d="M15.6651,0h30.6715c8.6448,0,15.6634,7.0185,15.6634,15.6634v30.6733c0,8.6448-7.0185,15.6634-15.6634,15.6634H15.6634c-8.6448,0-15.6634-7.0185-15.6634-15.6634V15.6651C0,7.0193,7.0193,0,15.6651,0Z"/><rect class="uuid-b1e14b6a-7bfb-4433-aafd-95ae4834a3df" x=".5974" y=".5974" width="60.8052" height="60.8052" rx="15.0659" ry="15.0659"/><path class="uuid-53a91dc9-cc01-4381-8313-9db070c0f9ea" d="M1.1948,15.663v30.6733c0,8.3193,5.064,14.4689,14.4704,14.4685l30.6714.0004c9.4045-.0004,14.4685-6.1496,14.4685-14.4689V15.663c0-8.3195-5.064-14.4682-14.4685-14.4685H15.6652C6.2588,1.1945,1.1948,7.3435,1.1948,15.663Z"/><path class="uuid-23a0e34a-a64d-468c-8b6d-6338caa1f396" d="M46.3366,1.1945H15.6653C6.2588,1.1945,1.1948,7.3435,1.1948,15.6631v30.6733c0,8.3193,5.064,14.4688,14.4704,14.4685l30.6714.0003c9.4045-.0003,14.4685-6.1496,14.4685-14.4688V15.6631c0-8.3196-5.064-14.4682-14.4685-14.4685ZM60.2078,46.3366c0,8.5563-5.3149,13.8711-13.8711,13.8711H15.6651c-8.5569,0-13.8729-5.3149-13.8729-13.8711V15.6634C1.7922,7.1071,7.1083,1.7922,15.6651,1.7922h30.6715c8.5563,0,13.8711,5.3149,13.8711,13.8711v30.6733Z"/><path class="uuid-c68c7824-1d7f-4c95-a12d-ad9fc0abc2af" d="M14.9585,52.625c-3.0786,0-5.5835-2.5049-5.5835-5.5835V14.9585c0-3.0786,2.5049-5.5835,5.5835-5.5835h21.0146c1.4854,0,2.9238.603,3.9478,1.6548l11.0591,11.0591c1.0435,1.0156,1.645,2.4526,1.645,3.938v21.0146c0,3.0786-2.5049,5.5835-5.5835,5.5835H14.9585ZM21.8335,38.875c-.7124,0-1.292.5796-1.292,1.2915,0,.7124.5796,1.292,1.292,1.292h18.333c.7124,0,1.292-.5796,1.292-1.292,0-.7119-.5796-1.2915-1.292-1.2915h-18.333ZM21.8335,29.7085c-.7124,0-1.292.5796-1.292,1.2915s.5796,1.2915,1.292,1.2915h18.333c.7124,0,1.292-.5796,1.292-1.2915s-.5796-1.2915-1.292-1.2915h-18.333ZM21.8335,20.5415c-.7124,0-1.292.5796-1.292,1.292,0,.7119.5796,1.2915,1.292,1.2915h11.458c.7124,0,1.292-.5796,1.292-1.2915,0-.7124-.5796-1.292-1.292-1.292h-11.458Z"/><path class="uuid-1c677c40-8dc5-41d1-bb8c-8474cb2c1c67" d="M14.9585,52.125c-2.8032,0-5.0835-2.2803-5.0835-5.0835V14.9585c0-2.8032,2.2803-5.0835,5.0835-5.0835h21.0146c1.3511,0,2.6592.5479,3.5894,1.5034l11.064,11.064c.9507.9253,1.4985,2.2334,1.4985,3.5845v21.0146c0,2.8032-2.2803,5.0835-5.0835,5.0835H14.9585ZM21.8335,38.375c-.9883,0-1.792.8037-1.792,1.7915s.8037,1.792,1.792,1.792h18.333c.9883,0,1.792-.8037,1.792-1.792s-.8037-1.7915-1.792-1.7915h-18.333ZM21.8335,29.2085c-.9883,0-1.792.8037-1.792,1.7915s.8037,1.7915,1.792,1.7915h18.333c.9883,0,1.792-.8037,1.792-1.7915s-.8037-1.7915-1.792-1.7915h-18.333ZM21.8335,20.0415c-.9883,0-1.792.8037-1.792,1.792s.8037,1.7915,1.792,1.7915h11.458c.9883,0,1.792-.8037,1.792-1.7915s-.8037-1.792-1.792-1.792h-11.458Z"/><path class="uuid-d57caa41-09b7-4be1-a0cd-460379601f68" d="M35.9729,10.375H14.9583c-2.5208,0-4.5833,2.0625-4.5833,4.5833v32.0833c0,2.5208,2.0625,4.5833,4.5833,4.5833h32.0833c2.5208,0,4.5833-2.0625,4.5833-4.5833v-21.0146c0-1.2146-.4812-2.3833-1.3521-3.2312l-11.0687-11.0687c-.8479-.8708-2.0167-1.3521-3.2312-1.3521h0ZM21.8333,37.875h18.3333c1.2604,0,2.2917,1.0312,2.2917,2.2917h0c0,1.2604-1.0313,2.2917-2.2917,2.2917h-18.3333c-1.2604,0-2.2917-1.0313-2.2917-2.2917h0c0-1.2604,1.0312-2.2917,2.2917-2.2917ZM21.8333,28.7083h18.3333c1.2604,0,2.2917,1.0312,2.2917,2.2917h0c0,1.2604-1.0313,2.2917-2.2917,2.2917h-18.3333c-1.2604,0-2.2917-1.0312-2.2917-2.2917h0c0-1.2604,1.0312-2.2917,2.2917-2.2917ZM21.8333,19.5417h11.4583c1.2604,0,2.2917,1.0312,2.2917,2.2917h0c0,1.2604-1.0312,2.2917-2.2917,2.2917h-11.4583c-1.2604,0-2.2917-1.0312-2.2917-2.2917h0c0-1.2604,1.0312-2.2917,2.2917-2.2917Z"/></svg>